<?xml version="1.0" encoding="utf-8"?>
<!-- Generator: Adobe Illustrator 25.2.0, SVG Export Plug-In . SVG Version: 6.00 Build 0)  -->
<svg version="1.1" id="Layer_1" xmlns="http://www.w3.org/2000/svg" xmlns:xlink="http://www.w3.org/1999/xlink" x="0px" y="0px"
	 viewBox="0 0 2088.35 563.49" style="enable-background:new 0 0 2088.35 563.49;" xml:space="preserve">
<style type="text/css">
	.st0{fill:#74656A;}
</style>
<g>
	<rect x="169.39" y="348.2" class="st0" width="1748.17" height="1.11"/>
	<path class="st0" d="M1709.48,190.69c0,6.04,0.47,11.93,1.42,17.67c0.94,5.74,2.35,11.41,4.24,17.01
		c3.77,10.9,8.88,20.32,15.34,28.27c6.59,8.25,14.06,14.58,22.41,18.99c8.61,4.72,17.83,7.07,27.65,7.07c7.13,0,13.66-1.4,19.58-4.2
		c6.46-2.94,12.25-7.07,17.36-12.37c5.25-5.74,9.62-12.74,13.12-20.98c3.77-8.54,6.39-18.4,7.87-29.6l-1.41-0.22
		c-0.81,5.45-1.81,10.6-3.03,15.46c-1.21,4.86-2.76,9.42-4.64,13.69c-1.75,3.97-3.67,7.69-5.75,11.15
		c-2.09,3.46-4.48,6.52-7.17,9.17c-5.12,5.6-10.7,9.72-16.76,12.37c-2.69,1.18-5.35,2.06-7.97,2.65c-2.62,0.59-5.35,1.03-8.18,1.32
		c-1.61,0-3.26-0.11-4.94-0.33c-1.69-0.22-3.27-0.62-4.74-1.21c-2.29-0.88-4.98-2.24-8.07-4.09c-3.1-1.84-6.39-4.45-9.89-7.84
		c-7.27-7.8-13.16-18.18-17.66-31.14c-4.51-12.95-6.76-27.24-6.76-42.85c0-12.07,1.38-23.45,4.14-34.12
		c2.76-10.67,6.49-19.99,11.2-27.94c4.71-7.95,10.22-14.21,16.55-18.78c6.32-4.56,13.05-6.85,20.18-6.85
		c5.79,0.44,11.17,1.77,16.15,3.98c6.46,2.95,12.11,7.07,16.96,12.37c2.56,2.8,4.94,5.93,7.17,9.39c2.22,3.46,4.2,7.18,5.95,11.16
		c1.75,4.27,3.26,8.83,4.54,13.69c1.28,4.86,2.25,10.02,2.93,15.46h1.42v-64.27h-1.42c-0.67,3.53-2.22,6.11-4.64,7.73
		c-2.02,1.47-5.05,2.21-9.08,2.21c-4.04,0-9.56-1.84-16.55-5.52c-0.94-0.58-1.85-1.1-2.72-1.55c-0.88-0.44-1.79-0.88-2.72-1.32
		l-0.2-0.22c-0.27,0-0.54-0.15-0.81-0.44h-0.2c-6.06-2.8-12.65-4.2-19.78-4.2c-9.83,0-19.04,2.36-27.65,7.07
		c-4.31,2.21-8.31,4.93-12.01,8.17c-3.7,3.24-7.17,6.85-10.39,10.82c-6.46,7.95-11.58,17.38-15.34,28.27
		c-1.89,5.6-3.3,11.27-4.24,17.01c-0.94,5.74-1.42,11.64-1.42,17.67h0.81v0.22H1709.48z"/>
	<path class="st0" d="M920.04,279.27h34.52v-1.55h-3.03c-2.16,0-5.02-0.33-8.58-0.99c-3.57-0.66-7.04-1.91-10.4-3.76
		c-3.37-1.84-6.29-4.53-8.78-8.06c-2.49-3.53-3.73-8.32-3.73-14.36V116.7l118.69,162.57h1.61V131.06c0-5.89,1.24-10.6,3.74-14.14
		c2.49-3.53,5.42-6.22,8.78-8.06c3.36-1.84,6.83-3.09,10.4-3.75c3.56-0.66,6.42-1,8.58-1h3.03v-1.55h-34.52h-1.61h-34.52v1.55h3.03
		c2.15,0,5.01,0.33,8.58,1c3.56,0.66,7.03,1.92,10.4,3.75c3.36,1.84,6.29,4.53,8.78,8.06c2.49,3.54,3.73,8.25,3.73,14.14v109.56
		L937.2,102.56h-17.16h-1.62H894v1.55h6.26c4.71,0,8.31,0.41,10.8,1.22c2.49,0.81,4.27,2.1,5.35,3.86c1.07,1.77,1.68,3.94,1.81,6.52
		c0.13,2.58,0.2,5.63,0.2,9.17v125.68c0,6.04-1.24,10.82-3.73,14.36c-2.49,3.54-5.42,6.22-8.78,8.06c-3.37,1.84-6.83,3.09-10.4,3.76
		c-3.57,0.66-6.43,0.99-8.58,0.99h-3.03v1.55h34.51H920.04z"/>
	<path class="st0" d="M526.15,402.85c-0.73,0.54-1.83,0.8-3.29,0.8c-1.46,0-3.46-0.67-5.99-2c-0.34-0.21-0.67-0.4-0.99-0.56
		c-0.31-0.16-0.65-0.32-0.98-0.48l-0.07-0.08c-0.1,0-0.19-0.06-0.29-0.16h-0.07c-2.19-1.01-4.58-1.52-7.16-1.52
		c-3.55,0-6.89,0.85-10.01,2.56c-1.56,0.8-3.01,1.79-4.34,2.96c-1.34,1.17-2.59,2.48-3.76,3.92c-2.34,2.88-4.19,6.29-5.55,10.23
		c-0.68,2.03-1.19,4.07-1.54,6.15c-0.34,2.08-0.51,4.21-0.51,6.4h0.29v0.08h-0.29c0,2.18,0.17,4.31,0.51,6.39
		c0.34,2.08,0.85,4.13,1.54,6.16c1.36,3.94,3.21,7.35,5.55,10.23c2.39,2.98,5.09,5.27,8.11,6.87c3.12,1.7,6.45,2.55,10.01,2.55
		c2.58,0,4.94-0.51,7.08-1.52c2.34-1.07,4.43-2.56,6.28-4.48c1.9-2.08,3.48-4.61,4.75-7.59c1.36-3.09,2.31-6.66,2.85-10.71
		l-0.51-0.08c-0.29,1.97-0.66,3.83-1.1,5.59c-0.44,1.76-1,3.41-1.68,4.95c-0.63,1.44-1.33,2.78-2.08,4.04
		c-0.76,1.25-1.62,2.36-2.59,3.31c-1.85,2.03-3.87,3.52-6.06,4.48c-0.97,0.43-1.94,0.75-2.88,0.96c-0.95,0.21-1.94,0.37-2.96,0.48
		c-0.58,0-1.18-0.04-1.79-0.12c-0.61-0.08-1.18-0.23-1.71-0.44c-0.83-0.32-1.8-0.81-2.92-1.48c-1.12-0.67-2.31-1.61-3.58-2.84
		c-2.63-2.82-4.76-6.58-6.39-11.27c-1.63-4.69-2.44-9.86-2.44-15.51c0-4.37,0.5-8.48,1.5-12.35c1-3.86,2.35-7.23,4.05-10.11
		c1.7-2.88,3.7-5.14,5.99-6.79c2.29-1.65,4.72-2.48,7.31-2.48c2.09,0.16,4.04,0.64,5.84,1.44c2.34,1.07,4.38,2.56,6.14,4.47
		c0.92,1.01,1.79,2.15,2.59,3.4c0.81,1.25,1.52,2.6,2.16,4.04c0.63,1.55,1.18,3.19,1.64,4.95c0.46,1.76,0.81,3.62,1.06,5.59h0.51
		v-23.26h-0.51C527.58,401.34,527.03,402.27,526.15,402.85z"/>
	<path class="st0" d="M158.65,202.62c-4.71-4.12-10.77-7.29-18.17-9.5c-2.56-0.73-5.21-1.36-7.97-1.88
		c-2.76-0.51-5.69-0.85-8.78-0.99c1.61-0.44,3.23-0.85,4.84-1.21c1.62-0.37,3.16-0.85,4.64-1.44c3.23-1.03,6.16-2.35,8.78-3.97
		c2.62-1.62,5.08-3.46,7.37-5.52c8.21-7.8,12.31-18.26,12.31-31.37c0-13.25-4.11-23.78-12.31-31.59c-4.58-4.42-9.96-7.66-16.15-9.72
		c-3.5-1.18-7.17-2.06-11-2.65c-3.84-0.58-7.97-0.88-12.42-0.88h-1.61h-3.84h-1.81h-6.46H33.1v1.77h6.46
		c3.36,0.3,6.19,0.81,8.48,1.55c2.29,0.74,4.1,1.92,5.45,3.53c1.34,1.62,2.32,3.76,2.93,6.41c0.61,2.65,0.91,6.04,0.91,10.16
		c0,1.32,0.06,2.28,0.2,2.87v127.23c0,4.71-0.4,8.47-1.21,11.27c-0.81,2.8-2.16,5.01-4.04,6.63s-4.41,2.69-7.57,3.2
		c-3.16,0.52-7.03,0.77-11.61,0.77v1.55h24.42h21.6h9.08h24.22h1.62c10.22,0,19.04-1.18,26.44-3.53c7-1.91,13.05-5.08,18.17-9.5
		c1.07-0.88,1.82-1.62,2.22-2.21c1.07-1.03,2.15-2.13,3.23-3.31c1.07-1.18,2.02-2.57,2.82-4.2c3.77-6.48,5.65-13.77,5.65-21.87
		C172.58,221.1,167.94,210.57,158.65,202.62z M79.12,127.96v-2.87c0-7.66,1.18-13,3.53-16.02c2.35-3.02,6.56-4.82,12.61-5.41h8.07
		h1.01h3.84c10.5,0,18.37,4.13,23.62,12.37c4.98,7.66,7.47,17.89,7.47,30.7c0,10.6-1.75,19.51-5.25,26.73
		c-1.35,2.51-2.76,4.64-4.24,6.41c-1.48,1.77-2.96,3.24-4.44,4.42c-4.71,3.53-10.43,5.3-17.16,5.3h-1.01H86.79h-7.67V127.96z
		 M139.07,264.69c-5.92,8.4-14.8,12.59-26.65,12.59h-9.08h-6.05c-3.36-0.14-6.22-0.62-8.58-1.44c-2.36-0.81-4.24-2.02-5.65-3.65
		c-1.41-1.62-2.42-3.79-3.03-6.52c-0.6-2.72-0.91-6.07-0.91-10.05v-3.98v-60.52h7.67h20.39h1.01h1.61h2.62
		c11.71,0,20.59,4.2,26.65,12.59c5.65,7.8,8.48,17.97,8.48,30.48C147.55,247.02,144.72,257.18,139.07,264.69z"/>
	<path class="st0" d="M1130.37,278.82c0.13-0.44,0.54-1.44,1.21-2.98c0.67-1.55,1.92-2.87,3.74-3.98c1.81-1.1,4.41-1.69,7.77-1.77
		c3.36-0.07,7.8,1.07,13.32,3.43c0.54,0.3,1.21,0.59,2.02,0.88c5.65,2.5,11.51,3.75,17.56,3.75h2.02c0.94,0,1.85-0.03,2.73-0.11
		c0.87-0.07,1.85-0.18,2.93-0.33h-0.4c9.82-1.47,18.23-4.16,25.23-8.06c6.99-3.9,12.61-8.54,16.85-13.91
		c4.24-5.37,7.03-11.23,8.38-17.56c1.34-6.33,1.28-12.66-0.2-19c-1.48-6.33-4.44-12.4-8.88-18.22
		c-4.44-5.81-10.29-10.86-17.56-15.13l-23.21-13.03c-11.44-7.07-19.85-14.17-25.23-21.31c-5.39-7.14-8.38-13.88-8.98-20.21
		c-0.61-6.33,0.81-11.93,4.24-16.79c3.43-4.86,8.24-8.39,14.43-10.6c2.15-0.73,4.41-1.29,6.76-1.66c2.35-0.37,4.68-0.55,6.96-0.55
		c5.52,0,10.76,0.99,15.74,2.98c4.98,1.99,9.42,4.9,13.32,8.72c1.88,1.92,3.77,4.23,5.65,6.96c1.88,2.73,3.56,5.67,5.05,8.83
		c1.48,3.17,2.66,6.44,3.53,9.83c0.87,3.39,1.31,6.63,1.31,9.72h1.62v-0.66V100.8h-1.42c-1.61,2.95-3.5,4.93-5.65,5.96
		c-2.16,1.03-4.44,1.47-6.86,1.32c-2.42-0.15-4.85-0.66-7.27-1.55c-2.42-0.88-4.71-1.77-6.86-2.65c-5.79-2.5-11.84-3.75-18.16-3.75
		c-2.83,0-5.59,0.22-8.28,0.66c-2.69,0.44-5.39,1.25-8.07,2.43c-5.79,2.36-10.93,5.52-15.44,9.5c-4.51,3.97-8.11,8.54-10.8,13.69
		c-2.69,5.16-4.31,10.68-4.84,16.56c-0.54,5.89,0.23,11.82,2.32,17.78c2.08,5.96,5.62,11.78,10.6,17.45
		c4.98,5.67,11.71,10.86,20.18,15.57l25.43,14.36c7.67,4.42,13.19,9.76,16.55,16.02c3.36,6.26,4.94,12.52,4.74,18.78
		c-0.2,6.26-1.99,12.11-5.35,17.56c-3.37,5.45-7.94,9.65-13.73,12.59c-5.38,2.21-11.1,3.46-17.16,3.75h-1.81
		c-6.05-0.15-11.78-1.36-17.16-3.64c-5.38-2.28-10.23-5.49-14.53-9.61c-2.16-2.06-4.11-4.78-5.85-8.17
		c-1.75-3.39-3.23-6.96-4.44-10.71c-1.21-3.75-2.16-7.51-2.83-11.27c-0.68-3.75-1.01-7.18-1.01-10.27h-0.2h-1.41v55.88h1.41V278.82z
		"/>
	<path class="st0" d="M263.21,279.27h24.22v-1.32v-0.22h-6.26c-3.36-0.14-6.19-0.62-8.48-1.44c-2.29-0.81-4.14-2.02-5.55-3.65
		c-1.41-1.62-2.42-3.75-3.03-6.41c-0.6-2.65-0.91-6.04-0.91-10.16v-3.98v-60.52h7.47c1.61,0,3.16,0.15,4.64,0.44
		c1.48,0.3,2.99,0.88,4.54,1.77c1.55,0.88,3.16,2.18,4.84,3.87c1.68,1.69,3.53,4.01,5.55,6.96l49.25,74.66h1.21h23.42h15.74v-1.55
		h-0.2c-0.4,0-1.55-0.07-3.43-0.22c-1.89-0.14-4.07-0.62-6.56-1.44c-2.49-0.81-5.05-1.99-7.67-3.54c-2.63-1.55-4.88-3.71-6.76-6.52
		l-37.95-57.65c-3.9-5.74-7.5-9.79-10.8-12.15c-3.3-2.35-6.29-3.9-8.98-4.64c3.63-0.29,7.1-0.66,10.4-1.1
		c3.3-0.44,6.43-1.25,9.39-2.43c6.46-2.35,11.84-5.52,16.15-9.5c8.21-7.8,12.31-18.33,12.31-31.59c0-6.48-1.05-12.4-3.13-17.78
		c-2.09-5.37-5.15-9.97-9.18-13.8c-4.71-4.12-10.09-7.29-16.15-9.5c-6.86-2.21-14.67-3.31-23.41-3.31h-1.61h-4.04h-1.61h-0.2h-6.46
		h-62.98v1.32h6.46c6.73,0.44,11.41,2.18,14.03,5.19c2.62,3.02,3.93,8.58,3.93,16.68v2.65v127.45c0,4.71-0.4,8.47-1.21,11.27
		c-0.81,2.8-2.12,5.01-3.94,6.63c-1.81,1.62-4.31,2.69-7.47,3.2c-3.16,0.52-7.03,0.77-11.61,0.77h-0.2v1.55h24.42H263.21z
		 M263.21,128.41v-2.87c0-3.83,0.27-7.07,0.81-9.72c0.54-2.65,1.44-4.78,2.73-6.41c1.28-1.62,2.93-2.87,4.94-3.75
		c2.02-0.88,4.51-1.47,7.47-1.77h8.28h0.81h4.04c10.22,0,18.1,4.2,23.62,12.59c4.98,7.66,7.47,17.82,7.47,30.48
		c0,5.3-0.47,10.2-1.41,14.69c-0.94,4.49-2.22,8.51-3.83,12.04c-1.35,2.51-2.8,4.68-4.34,6.52c-1.55,1.84-3.06,3.35-4.54,4.53
		c-4.84,3.68-10.5,5.52-16.95,5.52h-21.6h-7.47V128.41z"/>
	<path class="st0" d="M449.72,252.54c6.59,8.4,13.99,14.73,22.2,19c8.88,4.71,18.1,7.07,27.65,7.07h3.23h5.25h3.23
		c9.42,0,18.57-2.35,27.45-7.07c8.61-4.42,16.15-10.75,22.61-19c6.73-8.68,11.84-18.18,15.34-28.49
		c3.64-10.75,5.45-22.31,5.45-34.68c0-12.22-1.81-23.78-5.45-34.68c-3.5-10.3-8.61-19.8-15.34-28.49c-6.46-8.25-14-14.58-22.61-19
		c-8.88-4.71-18.03-7.07-27.45-7.07h-3.23h-5.25h-3.23c-9.56,0-18.77,2.36-27.65,7.07c-8.21,4.27-15.61,10.6-22.2,19
		c-6.73,8.39-11.78,17.89-15.14,28.49c-3.77,10.6-5.65,22.16-5.65,34.68c0,12.52,1.88,24.07,5.65,34.68
		C437.95,234.65,442.99,244.15,449.72,252.54z M454.67,155.57c2.49-10.6,6.22-20.02,11.2-28.27c0.94-1.77,1.98-3.46,3.13-5.08
		c1.14-1.62,2.32-3.09,3.53-4.42c4.17-4.56,8.24-7.99,12.21-10.27c3.97-2.28,7.17-3.94,9.59-4.97c2.69-0.73,5.38-1.1,8.07-1.1h1.62
		h4.44c1.48,0,2.82,0.11,4.04,0.33c1.21,0.22,2.55,0.48,4.04,0.77c2.29,1.03,5.42,2.69,9.39,4.97c3.97,2.29,8.1,5.71,12.41,10.27
		c1.08,1.32,2.19,2.8,3.33,4.42c1.14,1.62,2.25,3.31,3.33,5.08c4.98,8.25,8.75,17.67,11.3,28.27c2.56,10.6,3.83,21.87,3.83,33.8
		c0,11.92-1.28,23.19-3.83,33.79c-2.56,10.6-6.33,20.03-11.3,28.27c-1.08,1.77-2.19,3.46-3.33,5.08c-1.14,1.62-2.25,3.09-3.33,4.42
		c-4.31,4.56-8.44,7.99-12.41,10.27c-3.97,2.29-7.1,3.94-9.39,4.97c-1.48,0.3-2.83,0.59-4.04,0.88c-1.21,0.3-2.56,0.44-4.04,0.44
		h-4.44h-1.62c-1.48,0-2.89-0.14-4.24-0.44c-1.35-0.29-2.62-0.59-3.84-0.88c-2.42-1.03-5.62-2.68-9.59-4.97
		c-3.97-2.28-8.04-5.7-12.21-10.27c-1.21-1.33-2.39-2.8-3.53-4.42c-1.15-1.62-2.19-3.31-3.13-5.08c-4.98-8.24-8.71-17.67-11.2-28.27
		c-2.49-10.6-3.73-21.87-3.73-33.79C450.93,177.44,452.18,166.18,454.67,155.57z"/>
	<path class="st0" d="M1403.68,248.57c2.29,6.63,5.92,12.44,10.9,17.45c4.17,4.27,9.01,7.59,14.54,9.94
		c6.05,2.65,12.51,3.98,19.38,3.98h1.62c9.42,0,17.53-0.92,24.32-2.76c6.79-1.84,12.55-4.2,17.26-7.07
		c4.71-2.87,8.54-6.07,11.51-9.61c2.96-3.54,5.38-6.99,7.27-10.38c2.69-4.71,4.71-9.75,6.05-15.13c1.34-5.38,2.02-11.01,2.02-16.9
		c0-4.71-0.47-9.5-1.42-14.36c-0.94-4.86-2.29-9.57-4.04-14.14c0.27-0.15,0.54-0.22,0.81-0.22c0.27,0,0.54-0.15,0.81-0.44h0.2
		l12.11-5.08c3.09-1.47,5.72-2.98,7.87-4.53c2.15-1.55,4.1-3.2,5.85-4.97c4.04-4.42,6.05-9.72,6.05-15.9
		c0-5.89-1.95-10.97-5.85-15.24c-4.04-4.12-8.61-6.18-13.73-6.18c-2.29-0.3-4.34,0.37-6.16,1.99c-1.82,1.62-2.93,3.68-3.33,6.18
		c-0.4,2.65,0.1,5.05,1.51,7.18c1.41,2.14,3.33,3.42,5.75,3.86h1.62c2.42,0,4.54-0.92,6.36-2.76c1.82-1.84,3.4-3.42,4.74-4.75
		c1.34-1.32,2.59-1.88,3.73-1.66c1.14,0.22,2.32,2.4,3.53,6.52c0.13,0.74,0.23,1.4,0.31,1.99c0.06,0.59,0.1,1.25,0.1,1.99
		c-0.27,2.36-1.72,4.53-4.34,6.52c-2.62,1.99-5.92,3.94-9.89,5.85c-3.97,1.92-8.31,3.75-13.02,5.52c-4.71,1.77-9.22,3.54-13.52,5.3
		h-0.2l-12.11,5.08c-3.1,1.32-5.75,2.8-7.97,4.42c-2.22,1.62-4.14,3.31-5.75,5.08c-4.17,4.56-6.26,9.79-6.26,15.68
		c0.13,2.95,0.7,5.74,1.71,8.39c1.01,2.65,2.45,5.01,4.34,7.07c1.88,1.92,4,3.43,6.36,4.53c2.35,1.1,4.75,1.66,7.17,1.66
		c2.29,0.15,4.37-0.58,6.26-2.21c1.88-1.62,3.03-3.68,3.43-6.18c0.4-2.65-0.1-5.04-1.51-7.18c-1.42-2.13-3.33-3.43-5.75-3.87h-1.62
		c-2.56,0-4.71,0.92-6.46,2.76c-1.75,1.84-3.3,3.46-4.64,4.86c-1.35,1.4-2.59,1.99-3.73,1.77c-1.15-0.22-2.32-2.46-3.53-6.74
		c-0.14-0.59-0.24-1.21-0.31-1.88c-0.07-0.66-0.17-1.29-0.3-1.88c0.27-2.21,1.61-4.27,4.04-6.18c2.43-1.91,5.45-3.75,9.08-5.52
		c3.63-1.77,7.64-3.46,12.01-5.08c4.37-1.62,8.71-3.31,13.02-5.08c1.75,4.42,3.03,8.91,3.83,13.47c0.81,4.56,1.28,9.2,1.41,13.91
		c-0.13,3.24-1.01,7.81-2.62,13.69c-1.61,5.89-4.47,11.93-8.58,18.11c-4.11,6.18-9.62,11.93-16.55,17.23
		c-6.93,5.3-15.78,8.91-26.54,10.82c-2.29,0.3-4.28,0.52-5.96,0.66c-1.68,0.15-3.93,0.22-6.76,0.22h-1.42c-1.08,0-2.02,0-2.82,0
		c-0.81,0-1.75-0.07-2.82-0.22c-5.25-0.88-9.66-3.64-13.22-8.28c-3.57-4.64-6.26-10.23-8.07-16.79c-1.81-6.55-2.69-13.58-2.62-21.09
		c0.06-7.51,1.24-14.5,3.53-20.98c2.29-6.48,5.72-12,10.3-16.57c4.57-4.56,10.36-7.21,17.36-7.95c1.21,0,2.15-0.07,2.82-0.22h0.41
		h3.23l12.92,0.22v-1.55l-12.92-0.22c-1.08,0-2.15,0-3.23,0c-1.08,0-2.16-0.15-3.23-0.44c-6.33-1.03-11.51-3.72-15.54-8.06
		c-4.04-4.34-7-9.54-8.88-15.57c-1.89-6.04-2.76-12.4-2.62-19.11c0.13-6.7,1.21-12.88,3.23-18.55c2.02-5.67,4.88-10.38,8.58-14.14
		c3.7-3.75,8.17-5.63,13.42-5.63c1.62,0,3.19,0.11,4.74,0.33c1.55,0.22,3.06,0.48,4.54,0.77c5.52,1.33,9.59,3.83,12.21,7.51
		c2.62,3.68,4.41,7.69,5.35,12.04c0.94,4.34,1.38,8.58,1.31,12.7c-0.07,4.13-0.1,7.37-0.1,9.72c0.13,2.51,1.08,4.68,2.83,6.52
		c1.75,1.84,3.77,2.76,6.06,2.76c2.42,0,4.47-0.92,6.16-2.76c1.68-1.84,2.45-4.09,2.32-6.74c-0.27-6.04-1.61-11.71-4.04-17.01
		c-2.42-5.3-5.79-10.08-10.09-14.36c-4.17-4.27-8.92-7.47-14.23-9.61c-5.32-2.13-11-3.2-17.06-3.2s-11.57,0.88-16.55,2.65
		c-5.12,1.77-9.62,4.42-13.53,7.95c-0.54,0.44-1.01,0.88-1.41,1.32c-0.4,0.44-0.88,0.88-1.41,1.32c-1.48,1.62-2.72,3.31-3.73,5.08
		c-1.01,1.77-1.92,3.61-2.73,5.52c-0.68,1.62-1.21,3.31-1.61,5.08c-0.4,1.77-0.74,3.53-1.01,5.3c-0.14,0.89-0.2,1.77-0.2,2.65
		c0,0.88,0,1.77,0,2.65c0,8.54,2.35,16.27,7.06,23.19c2.15,3.09,4.78,6.04,7.87,8.83c1.34,1.18,2.82,2.36,4.44,3.54
		c6.19,4.27,13.12,7.07,20.79,8.39c-1.48,0.3-2.96,0.55-4.44,0.77c-1.48,0.22-2.9,0.48-4.24,0.77c-1.21,0.3-2.32,0.63-3.33,0.99
		c-1.01,0.37-2.05,0.7-3.13,1c-6.73,2.36-12.52,5.96-17.36,10.82c-4.31,4.27-7.54,9.17-9.69,14.69c-2.15,5.52-3.23,11.53-3.23,18
		c0,2.8,0.23,5.52,0.71,8.17C1402.23,243.26,1402.87,245.91,1403.68,248.57z"/>
	<path class="st0" d="M606.48,407.81c-2.34-2.98-5.06-5.28-8.18-6.87c-3.21-1.7-6.52-2.56-9.93-2.56h-1.17h-1.9h-1.17
		c-3.46,0-6.79,0.85-10.01,2.56c-2.97,1.55-5.65,3.83-8.03,6.87c-2.43,3.04-4.26,6.47-5.48,10.31c-1.36,3.83-2.05,8.02-2.05,12.55
		c0,4.53,0.68,8.71,2.05,12.54c1.22,3.84,3.04,7.27,5.48,10.31c2.39,3.04,5.06,5.33,8.03,6.87c3.21,1.71,6.55,2.56,10.01,2.56h1.17
		h1.9h1.17c3.41,0,6.72-0.85,9.93-2.56c3.12-1.6,5.84-3.89,8.18-6.87c2.43-3.15,4.28-6.58,5.55-10.31
		c1.31-3.89,1.97-8.07,1.97-12.54c0-4.42-0.66-8.6-1.97-12.55C610.76,414.39,608.92,410.95,606.48,407.81z M604.65,442.89
		c-0.93,3.83-2.29,7.25-4.09,10.23c-0.39,0.64-0.79,1.25-1.2,1.84c-0.42,0.58-0.82,1.12-1.21,1.6c-1.56,1.65-3.06,2.89-4.49,3.72
		c-1.44,0.82-2.57,1.43-3.4,1.8c-0.54,0.11-1.02,0.21-1.46,0.32c-0.44,0.11-0.93,0.16-1.46,0.16h-1.61h-0.58
		c-0.54,0-1.05-0.05-1.53-0.16c-0.49-0.11-0.95-0.21-1.39-0.32c-0.87-0.37-2.03-0.97-3.47-1.8c-1.44-0.83-2.91-2.06-4.42-3.72
		c-0.44-0.48-0.86-1.01-1.28-1.6c-0.41-0.59-0.79-1.2-1.13-1.84c-1.8-2.98-3.16-6.39-4.05-10.23c-0.9-3.84-1.35-7.91-1.35-12.23
		c0-4.32,0.45-8.39,1.35-12.23c0.9-3.83,2.25-7.24,4.05-10.23c0.34-0.64,0.72-1.25,1.13-1.84c0.42-0.58,0.84-1.12,1.28-1.6
		c1.51-1.65,2.98-2.89,4.42-3.71c1.44-0.83,2.59-1.43,3.47-1.8c0.97-0.27,1.95-0.4,2.92-0.4h0.58h1.61c0.54,0,1.02,0.04,1.46,0.12
		c0.44,0.08,0.93,0.17,1.46,0.28c0.83,0.37,1.96,0.97,3.4,1.8c1.43,0.82,2.93,2.06,4.49,3.71c0.39,0.48,0.79,1.01,1.21,1.6
		c0.41,0.59,0.81,1.2,1.2,1.84c1.8,2.98,3.16,6.39,4.09,10.23c0.93,3.84,1.39,7.91,1.39,12.23
		C606.04,434.98,605.58,439.06,604.65,442.89z"/>
	<path class="st0" d="M629.17,104.88c2.29,0.22,4.47,0.99,6.56,2.32c2.08,1.32,4.04,3.5,5.85,6.52c1.81,3.02,3.53,7.47,5.15,13.36
		l0.81,2.87l40.37,148.87h1.61l39.16-146.88l39.97,146.88h1.41l39.97-148.65c1.61-6.04,3.8-10.78,6.56-14.25
		c2.76-3.46,5.62-6.07,8.58-7.84c2.96-1.77,5.68-2.91,8.17-3.42c2.49-0.52,4.34-0.78,5.55-0.78h1.01v-1.55h-54.09v1.55h1.21
		c1.34,0,3.53,0.19,6.56,0.56c3.03,0.37,5.96,1.29,8.78,2.76c2.82,1.47,5.08,3.57,6.76,6.3c1.68,2.73,1.92,6.52,0.7,11.38
		l-30.68,114.86l-29.67-110.44c-1.89-6.63-2.63-11.67-2.22-15.13c0.4-3.46,1.58-5.96,3.53-7.51c1.95-1.55,4.44-2.39,7.47-2.54
		c3.03-0.14,6.29-0.22,9.79-0.22h0.61v-1.55h-66.21v1.55h0.2c2.42,0.44,4.81,0.78,7.17,1c2.35,0.22,4.57,0.99,6.66,2.32
		c2.08,1.32,4.04,3.5,5.85,6.52c1.82,3.02,3.53,7.47,5.15,13.36c0.13,0.3,0.2,0.63,0.2,0.99c0,0.37,0.13,0.77,0.4,1.21
		l-29.67,110.44l-29.67-110.44c-1.89-6.48-2.62-11.45-2.22-14.91c0.4-3.46,1.55-5.96,3.43-7.51c1.88-1.55,4.37-2.43,7.47-2.65
		c3.09-0.22,6.39-0.33,9.89-0.33h0.61v-1.55h-66.21v1.55h0.2C624.46,104.33,626.88,104.66,629.17,104.88z"/>
	<path class="st0" d="M1391.69,462.11c-0.85-0.29-1.53-0.73-2.04-1.32c-0.51-0.59-0.88-1.36-1.1-2.32
		c-0.22-0.96-0.33-2.18-0.33-3.68v-1.44v-44.75v-1.04c0-2.82,0.43-4.77,1.28-5.83c0.85-1.06,2.37-1.73,4.56-2h2.92v-0.08v-0.4h-0.29
		h-25.12v0.48h2.34c2.43,0.16,4.13,0.79,5.07,1.88c0.95,1.09,1.43,3.1,1.43,6.03v0.96v46.11c0,1.7-0.15,3.06-0.44,4.07
		c-0.29,1.01-0.78,1.81-1.46,2.4c-0.68,0.58-1.59,0.97-2.74,1.16c-1.14,0.19-2.54,0.28-4.2,0.28v0.56h25.49v-0.56h-2.27
		C1393.57,462.58,1392.54,462.41,1391.69,462.11z"/>
	<path class="st0" d="M1294.67,415.8h0.51v-0.16c0.34-1.65,0.76-3.37,1.24-5.16c0.49-1.78,1.22-3.45,2.19-4.99
		c0.97-1.55,2.26-2.85,3.87-3.92c1.61-1.07,3.72-1.7,6.35-1.92h0.44c1.22,0.11,2.24,0.29,3.07,0.56c0.83,0.27,1.5,0.69,2.01,1.28
		c0.51,0.59,0.88,1.36,1.1,2.32c0.22,0.96,0.33,2.19,0.33,3.68v1.04v46.03c0,1.7-0.15,3.06-0.44,4.07c-0.29,1.01-0.77,1.81-1.43,2.4
		c-0.66,0.59-1.56,0.97-2.7,1.16c-1.14,0.19-2.55,0.28-4.2,0.28v0.56h25.41v-0.56h-2.26c-1.22-0.05-2.24-0.22-3.07-0.52
		c-0.83-0.29-1.5-0.73-2.01-1.32c-0.51-0.58-0.88-1.37-1.09-2.36c-0.22-0.98-0.33-2.2-0.33-3.64v-1.44v-44.75v-1.04
		c0-2.77,0.43-4.7,1.28-5.79c0.85-1.09,2.35-1.74,4.49-1.96h0.66c2.63,0.21,4.76,0.85,6.39,1.92c1.63,1.06,2.92,2.37,3.87,3.92
		c0.95,1.55,1.67,3.21,2.15,4.99c0.49,1.79,0.93,3.5,1.31,5.16v0.16h0.51v-16.78h-49.66V415.8z"/>
	<path class="st0" d="M1458.69,434.86c-1.6-2.1-3.72-3.93-6.35-5.47l-8.4-4.72c-4.14-2.55-7.18-5.13-9.13-7.71
		c-1.95-2.58-3.03-5.02-3.25-7.31c-0.22-2.29,0.29-4.32,1.53-6.07c1.24-1.76,2.98-3.04,5.22-3.84c0.78-0.27,1.59-0.46,2.45-0.6
		c0.85-0.13,1.69-0.2,2.52-0.2c2,0,3.9,0.36,5.7,1.08c1.8,0.72,3.41,1.77,4.82,3.16c0.68,0.69,1.36,1.53,2.05,2.52
		c0.68,0.99,1.29,2.05,1.83,3.2c0.53,1.15,0.96,2.33,1.28,3.56c0.32,1.23,0.47,2.4,0.47,3.52h0.58v-0.24v-17.1h-0.51
		c-0.58,1.06-1.27,1.79-2.05,2.16c-0.78,0.37-1.61,0.54-2.48,0.48c-0.88-0.05-1.75-0.24-2.63-0.56c-0.88-0.32-1.7-0.64-2.48-0.96
		c-2.09-0.9-4.29-1.36-6.57-1.36c-1.02,0-2.02,0.08-2.99,0.24c-0.97,0.16-1.95,0.45-2.92,0.88c-2.09,0.85-3.96,2-5.59,3.43
		c-1.63,1.44-2.94,3.09-3.91,4.95c-0.98,1.87-1.56,3.86-1.75,5.99c-0.19,2.13,0.08,4.28,0.84,6.43c0.76,2.16,2.03,4.26,3.83,6.31
		c1.8,2.05,4.24,3.93,7.3,5.64l9.2,5.19c2.78,1.6,4.77,3.53,5.99,5.79c1.22,2.27,1.79,4.53,1.71,6.8c-0.07,2.26-0.72,4.38-1.94,6.35
		c-1.22,1.97-2.87,3.49-4.96,4.55c-1.95,0.8-4.02,1.25-6.21,1.36h-0.66c-2.19-0.05-4.26-0.49-6.21-1.32
		c-1.95-0.82-3.7-1.98-5.26-3.48c-0.78-0.74-1.48-1.73-2.12-2.95c-0.63-1.23-1.17-2.52-1.61-3.88c-0.44-1.36-0.78-2.72-1.02-4.08
		c-0.24-1.36-0.36-2.6-0.36-3.71h-0.07h-0.51v20.22h0.51v-0.08c0.05-0.16,0.19-0.52,0.44-1.08c0.24-0.56,0.69-1.04,1.35-1.44
		c0.66-0.4,1.59-0.61,2.81-0.64c1.22-0.03,2.82,0.39,4.82,1.24c0.19,0.11,0.44,0.21,0.73,0.32c2.05,0.91,4.16,1.36,6.35,1.36h0.73
		c0.34,0,0.67-0.01,0.99-0.04c0.31-0.03,0.67-0.07,1.06-0.12h-0.15c3.55-0.53,6.6-1.51,9.13-2.92c2.53-1.41,4.56-3.09,6.1-5.04
		c1.54-1.94,2.55-4.06,3.03-6.35c0.48-2.29,0.46-4.58-0.07-6.87C1461.37,439.16,1460.3,436.97,1458.69,434.86z"/>
	<path class="st0" d="M1601.69,434.86c-1.61-2.1-3.72-3.93-6.35-5.47l-8.4-4.72c-4.14-2.55-7.18-5.13-9.13-7.71
		c-1.95-2.58-3.03-5.02-3.25-7.31c-0.22-2.29,0.29-4.32,1.54-6.07c1.24-1.76,2.98-3.04,5.22-3.84c0.78-0.27,1.59-0.46,2.45-0.6
		c0.85-0.13,1.69-0.2,2.52-0.2c2,0,3.89,0.36,5.69,1.08c1.8,0.72,3.41,1.77,4.82,3.16c0.68,0.69,1.36,1.53,2.05,2.52
		c0.68,0.99,1.29,2.05,1.82,3.2c0.54,1.15,0.96,2.33,1.28,3.56c0.32,1.23,0.47,2.4,0.47,3.52h0.58v-0.24v-17.1h-0.51
		c-0.58,1.06-1.27,1.79-2.05,2.16c-0.78,0.37-1.61,0.54-2.48,0.48c-0.88-0.05-1.75-0.24-2.63-0.56c-0.88-0.32-1.7-0.64-2.48-0.96
		c-2.09-0.9-4.28-1.36-6.57-1.36c-1.02,0-2.02,0.08-2.99,0.24c-0.98,0.16-1.95,0.45-2.92,0.88c-2.09,0.85-3.96,2-5.59,3.43
		c-1.63,1.44-2.94,3.09-3.91,4.95c-0.97,1.87-1.56,3.86-1.75,5.99c-0.19,2.13,0.08,4.28,0.84,6.43c0.75,2.16,2.03,4.26,3.83,6.31
		c1.8,2.05,4.24,3.93,7.3,5.64l9.2,5.19c2.78,1.6,4.77,3.53,5.99,5.79c1.21,2.27,1.79,4.53,1.71,6.8c-0.07,2.26-0.72,4.38-1.94,6.35
		c-1.22,1.97-2.87,3.49-4.97,4.55c-1.95,0.8-4.02,1.25-6.21,1.36h-0.66c-2.19-0.05-4.26-0.49-6.21-1.32
		c-1.95-0.82-3.7-1.98-5.26-3.48c-0.78-0.74-1.48-1.73-2.12-2.95c-0.63-1.23-1.17-2.52-1.61-3.88c-0.44-1.36-0.78-2.72-1.02-4.08
		c-0.24-1.36-0.36-2.6-0.36-3.71h-0.07h-0.51v20.22h0.51v-0.08c0.05-0.16,0.19-0.52,0.44-1.08c0.24-0.56,0.69-1.04,1.35-1.44
		c0.66-0.4,1.59-0.61,2.81-0.64c1.22-0.03,2.82,0.39,4.82,1.24c0.19,0.11,0.44,0.21,0.73,0.32c2.05,0.91,4.16,1.36,6.35,1.36h0.73
		c0.34,0,0.67-0.01,0.99-0.04c0.31-0.03,0.67-0.07,1.06-0.12h-0.15c3.55-0.53,6.6-1.51,9.13-2.92c2.53-1.41,4.56-3.09,6.1-5.04
		c1.53-1.94,2.54-4.06,3.03-6.35c0.48-2.29,0.46-4.58-0.07-6.87C1604.37,439.16,1603.3,436.97,1601.69,434.86z"/>
	<path class="st0" d="M2049.81,154.69c-3.5-10.3-8.61-19.8-15.34-28.49c-6.46-8.25-14-14.58-22.61-19
		c-8.88-4.71-18.03-7.07-27.45-7.07h-3.23h-5.25h-3.23c-9.55,0-18.77,2.36-27.65,7.07c-8.21,4.27-15.61,10.6-22.2,19
		c-6.73,8.39-11.78,17.89-15.14,28.49c-3.77,10.6-5.65,22.16-5.65,34.68c0,12.52,1.88,24.07,5.65,34.68
		c3.36,10.6,8.41,20.1,15.14,28.49c6.59,8.4,14,14.73,22.2,19c8.88,4.71,18.1,7.07,27.65,7.07h3.23h5.25h3.23
		c9.42,0,18.57-2.35,27.45-7.07c8.61-4.42,16.15-10.75,22.61-19c6.73-8.68,11.84-18.18,15.34-28.49
		c3.63-10.75,5.45-22.31,5.45-34.68C2055.25,177.15,2053.44,165.59,2049.81,154.69z M2029.42,223.16
		c-2.56,10.6-6.33,20.03-11.3,28.27c-1.08,1.77-2.19,3.46-3.33,5.08c-1.15,1.62-2.26,3.09-3.33,4.42
		c-4.31,4.56-8.45,7.99-12.41,10.27c-3.97,2.29-7.1,3.94-9.39,4.97c-1.48,0.3-2.83,0.59-4.04,0.88c-1.21,0.3-2.56,0.44-4.04,0.44
		h-4.44h-1.61c-1.48,0-2.9-0.14-4.24-0.44c-1.35-0.29-2.62-0.59-3.83-0.88c-2.42-1.03-5.62-2.68-9.59-4.97
		c-3.97-2.28-8.05-5.7-12.21-10.27c-1.21-1.33-2.39-2.8-3.53-4.42c-1.15-1.62-2.19-3.31-3.13-5.08c-4.98-8.24-8.71-17.67-11.2-28.27
		c-2.49-10.6-3.74-21.87-3.74-33.79c0-11.93,1.24-23.19,3.74-33.8c2.49-10.6,6.22-20.02,11.2-28.27c0.94-1.77,1.98-3.46,3.13-5.08
		c1.14-1.62,2.32-3.09,3.53-4.42c4.17-4.56,8.24-7.99,12.21-10.27c3.97-2.28,7.17-3.94,9.59-4.97c2.69-0.73,5.38-1.1,8.07-1.1h1.61
		h4.44c1.48,0,2.82,0.11,4.04,0.33c1.21,0.22,2.56,0.48,4.04,0.77c2.29,1.03,5.42,2.69,9.39,4.97c3.97,2.29,8.11,5.71,12.41,10.27
		c1.07,1.32,2.18,2.8,3.33,4.42c1.14,1.62,2.25,3.31,3.33,5.08c4.98,8.25,8.75,17.67,11.3,28.27c2.55,10.6,3.83,21.87,3.83,33.8
		C2033.25,201.3,2031.97,212.56,2029.42,223.16z"/>
	<path class="st0" d="M1489.59,415.8h0.51v-0.16c0.34-1.65,0.75-3.37,1.24-5.16c0.49-1.78,1.22-3.45,2.19-4.99
		c0.97-1.55,2.27-2.85,3.87-3.92c1.6-1.07,3.72-1.7,6.35-1.92h0.44c1.21,0.11,2.24,0.29,3.06,0.56c0.83,0.27,1.5,0.69,2.01,1.28
		c0.51,0.59,0.88,1.36,1.09,2.32c0.22,0.96,0.33,2.19,0.33,3.68v1.04v46.03c0,1.7-0.15,3.06-0.44,4.07
		c-0.29,1.01-0.77,1.81-1.43,2.4c-0.66,0.59-1.56,0.97-2.7,1.16c-1.15,0.19-2.55,0.28-4.2,0.28v0.56h25.41v-0.56h-2.26
		c-1.22-0.05-2.24-0.22-3.07-0.52c-0.83-0.29-1.5-0.73-2.01-1.32c-0.51-0.58-0.88-1.37-1.1-2.36c-0.22-0.98-0.33-2.2-0.33-3.64
		v-1.44v-44.75v-1.04c0-2.77,0.43-4.7,1.28-5.79c0.85-1.09,2.35-1.74,4.49-1.96h0.66c2.63,0.21,4.76,0.85,6.39,1.92
		c1.63,1.06,2.92,2.37,3.87,3.92c0.95,1.55,1.67,3.21,2.16,4.99c0.49,1.79,0.92,3.5,1.31,5.16v0.16h0.51v-16.78h-49.66V415.8z"/>
	<path class="st0" d="M1272.24,462.55c-0.69-0.05-1.47-0.23-2.37-0.52c-0.9-0.29-1.83-0.72-2.78-1.28
		c-0.95-0.56-1.77-1.34-2.45-2.36l-13.73-20.86c-1.41-2.08-2.71-3.54-3.91-4.39c-1.19-0.85-2.28-1.41-3.25-1.68
		c1.32-0.11,2.57-0.24,3.76-0.4c1.19-0.16,2.32-0.45,3.4-0.88c2.34-0.85,4.29-2,5.84-3.44c2.97-2.82,4.45-6.63,4.45-11.43
		c0-2.34-0.38-4.49-1.13-6.43c-0.75-1.94-1.86-3.61-3.32-5c-1.7-1.49-3.65-2.64-5.84-3.43c-2.48-0.8-5.31-1.2-8.47-1.2h-0.58h-1.46
		h-0.58h-0.07h-2.33h-22.79v0.48h2.34c2.43,0.16,4.13,0.79,5.07,1.88c0.95,1.09,1.43,3.1,1.43,6.03v0.96v46.11
		c0,1.7-0.15,3.06-0.44,4.07c-0.29,1.01-0.77,1.81-1.43,2.4c-0.66,0.58-1.56,0.97-2.7,1.16c-1.15,0.19-2.55,0.28-4.2,0.28h-0.07
		v0.56h8.84h7.89h8.77v-0.48v-0.08h-2.27c-1.22-0.05-2.24-0.23-3.06-0.52c-0.83-0.29-1.5-0.73-2.01-1.32
		c-0.51-0.59-0.88-1.36-1.09-2.32c-0.22-0.96-0.33-2.18-0.33-3.68v-1.44v-21.9h2.7c0.58,0,1.14,0.05,1.68,0.16
		c0.54,0.11,1.08,0.32,1.64,0.64c0.56,0.32,1.14,0.79,1.75,1.4c0.61,0.61,1.28,1.45,2.01,2.52l17.82,27.01h0.44h8.47h5.7v-0.56
		h-0.07C1273.34,462.63,1272.93,462.61,1272.24,462.55z M1234.05,430.99h-2.7v-22.38v-1.04c0-1.39,0.1-2.56,0.29-3.52
		c0.19-0.96,0.52-1.73,0.99-2.32c0.46-0.59,1.06-1.04,1.79-1.36c0.73-0.32,1.63-0.53,2.7-0.64h2.99h0.29h1.46
		c3.7,0,6.55,1.52,8.55,4.56c1.8,2.77,2.7,6.45,2.7,11.03c0,1.92-0.17,3.69-0.51,5.31c-0.34,1.63-0.8,3.08-1.39,4.36
		c-0.49,0.91-1.01,1.69-1.57,2.36c-0.56,0.67-1.11,1.21-1.64,1.64c-1.75,1.33-3.8,2-6.13,2H1234.05z"/>
	<path class="st0" d="M850.77,453.44c-0.68,1.17-1.48,2.31-2.41,3.4c-0.93,1.09-2.01,2.06-3.25,2.92c-1.24,0.85-2.67,1.55-4.27,2.08
		c-1.61,0.53-3.41,0.8-5.41,0.8h-8.11c-1.22-0.05-2.24-0.23-3.06-0.52c-0.83-0.29-1.5-0.73-2.01-1.32
		c-0.51-0.59-0.88-1.36-1.09-2.32c-0.22-0.96-0.33-2.18-0.33-3.68c0-0.69-0.02-1.17-0.07-1.44v-21.9h9.57h0.51
		c2.19,0,3.91,0.48,5.15,1.44c1.24,0.96,2.18,2.06,2.81,3.31c0.63,1.25,1.02,2.47,1.17,3.64c0.15,1.17,0.22,1.95,0.22,2.32v0.24
		h0.51v-10.95v-0.48v-10.87h-0.51v0.24c0,0.37-0.07,1.12-0.22,2.24c-0.15,1.12-0.52,2.29-1.13,3.52c-0.61,1.23-1.51,2.33-2.7,3.32
		c-1.19,0.99-2.84,1.51-4.93,1.56h-10.44v-22.38v-8.87h11.54h2.19c3.02,0,5.45,0.52,7.3,1.56c1.85,1.04,3.31,2.35,4.38,3.92
		c1.07,1.57,1.86,3.31,2.37,5.23c0.51,1.92,0.96,3.76,1.35,5.51v0.08h0.51v-16.78h-0.51h-29.14h-16.65v0.48h2.34
		c2.43,0.16,4.13,0.79,5.07,1.88c0.95,1.09,1.43,3.1,1.43,6.03c0,0.16,0.01,0.32,0.04,0.48c0.03,0.16,0.04,0.32,0.04,0.48v46.11
		c0,1.7-0.15,3.06-0.44,4.07c-0.29,1.01-0.78,1.81-1.46,2.4c-0.69,0.58-1.6,0.97-2.74,1.16c-1.15,0.19-2.55,0.28-4.2,0.28v0.56
		h25.49h22.28h0.51l2.12-19.02h-0.51C853.43,447.63,852.33,450.73,850.77,453.44z"/>
	<path class="st0" d="M1185.34,460.91c-0.73-0.61-1.46-1.54-2.19-2.8c-0.73-1.25-1.54-3.05-2.41-5.4l-19.57-53.54h-0.58
		l-19.64,53.71c-0.88,2.4-1.93,4.23-3.14,5.51c-1.22,1.28-2.37,2.22-3.47,2.84c-1.1,0.61-2.05,0.97-2.85,1.08
		c-0.8,0.11-1.23,0.16-1.28,0.16v0.56h19.5v-0.56c-0.05,0-0.36-0.01-0.95-0.04c-0.58-0.03-1.28-0.13-2.08-0.32
		c-0.8-0.19-1.63-0.48-2.48-0.88c-0.85-0.4-1.57-0.96-2.16-1.68c-0.58-0.72-0.96-1.62-1.13-2.72c-0.17-1.09,0.04-2.44,0.62-4.04
		l5.55-15.1h20.38l5.41,14.86c0.88,2.45,1.36,4.33,1.46,5.64c0.1,1.31-0.17,2.25-0.81,2.83c-0.63,0.59-1.57,0.95-2.81,1.08
		c-1.24,0.13-2.74,0.25-4.49,0.36v0.56h23.95v-0.56c-0.97-0.16-1.84-0.31-2.59-0.44C1186.81,461.9,1186.07,461.53,1185.34,460.91z
		 M1147.29,437.14l10-27.25l9.93,27.25H1147.29z"/>
	<path class="st0" d="M771.1,460.91c-1.07-1.14-1.61-3.21-1.61-6.19v-47.23c0-2.82,0.43-4.82,1.28-5.99
		c0.85-1.17,2.37-1.76,4.56-1.76h2.92v-0.56h-15.48l-19.65,41.16l-19.72-41.16h-15.26v0.56h2.33c1.66,0,2.94,0.24,3.83,0.72
		c0.9,0.48,1.56,1.13,1.97,1.96c0.41,0.83,0.64,1.8,0.69,2.92c0.05,1.12,0.07,2.32,0.07,3.6v43.79c0,2.18-0.45,3.92-1.35,5.19
		c-0.9,1.28-1.96,2.28-3.18,3c-1.22,0.72-2.47,1.19-3.76,1.4c-1.29,0.21-2.33,0.32-3.1,0.32h-1.1v0.48h25.49v-0.48h-1.17
		c-0.73,0-1.74-0.11-3.03-0.32c-1.29-0.21-2.56-0.68-3.8-1.4c-1.24-0.72-2.31-1.72-3.21-3c-0.9-1.28-1.35-3.01-1.35-5.19v-47.31
		l21.25,44.11h0.58l22.42-46.99c0,0.59-0.01,1.8-0.04,3.64c-0.03,1.84-0.04,4.04-0.04,6.59c0,2.56,0,5.37,0,8.43
		c0,3.06,0,6.14,0,9.23v24.21c0,1.71-0.15,3.08-0.44,4.12c-0.29,1.04-0.78,1.84-1.46,2.4c-0.68,0.56-1.58,0.95-2.7,1.16
		c-1.12,0.21-2.51,0.32-4.16,0.32v0.48h25.41v-0.48h-2.26C773.82,462.63,772.17,462.06,771.1,460.91z"/>
	<path class="st0" d="M880.94,415.8h0.51v-0.16c0.34-1.65,0.76-3.37,1.24-5.16c0.49-1.78,1.22-3.45,2.19-4.99
		c0.97-1.55,2.26-2.85,3.87-3.92c1.61-1.07,3.72-1.7,6.35-1.92h0.44c1.22,0.11,2.24,0.29,3.07,0.56c0.83,0.27,1.5,0.69,2.01,1.28
		c0.51,0.59,0.88,1.36,1.1,2.32c0.22,0.96,0.33,2.19,0.33,3.68v1.04v46.03c0,1.7-0.15,3.06-0.44,4.07c-0.29,1.01-0.77,1.81-1.43,2.4
		c-0.66,0.59-1.56,0.97-2.7,1.16c-1.14,0.19-2.55,0.28-4.2,0.28v0.56h25.41v-0.56h-2.26c-1.22-0.05-2.24-0.22-3.07-0.52
		c-0.83-0.29-1.5-0.73-2.01-1.32c-0.51-0.58-0.88-1.37-1.09-2.36c-0.22-0.98-0.33-2.2-0.33-3.64v-1.44v-44.75v-1.04
		c0-2.77,0.43-4.7,1.28-5.79c0.85-1.09,2.35-1.74,4.49-1.96h0.66c2.63,0.21,4.76,0.85,6.39,1.92c1.63,1.06,2.92,2.37,3.87,3.92
		c0.95,1.55,1.67,3.21,2.15,4.99c0.49,1.79,0.93,3.5,1.31,5.16v0.16h0.51v-16.78h-49.66V415.8z"/>
	<path class="st0" d="M675.13,434.86c-1.61-2.1-3.72-3.93-6.35-5.47l-8.4-4.72c-4.14-2.55-7.18-5.13-9.13-7.71
		c-1.95-2.58-3.03-5.02-3.25-7.31c-0.22-2.29,0.29-4.32,1.54-6.07c1.24-1.76,2.98-3.04,5.22-3.84c0.78-0.27,1.59-0.46,2.45-0.6
		c0.85-0.13,1.69-0.2,2.52-0.2c1.99,0,3.89,0.36,5.69,1.08c1.8,0.72,3.41,1.77,4.82,3.16c0.68,0.69,1.36,1.53,2.05,2.52
		c0.68,0.99,1.29,2.05,1.82,3.2c0.54,1.15,0.96,2.33,1.28,3.56c0.32,1.23,0.47,2.4,0.47,3.52h0.58v-0.24v-17.1h-0.51
		c-0.58,1.06-1.27,1.79-2.05,2.16c-0.78,0.37-1.61,0.54-2.48,0.48c-0.88-0.05-1.75-0.24-2.63-0.56c-0.88-0.32-1.7-0.64-2.48-0.96
		c-2.09-0.9-4.29-1.36-6.57-1.36c-1.02,0-2.02,0.08-3,0.24c-0.97,0.16-1.95,0.45-2.92,0.88c-2.09,0.85-3.96,2-5.59,3.43
		c-1.63,1.44-2.93,3.09-3.91,4.95c-0.97,1.87-1.56,3.86-1.75,5.99c-0.19,2.13,0.08,4.28,0.84,6.43c0.75,2.16,2.03,4.26,3.83,6.31
		c1.8,2.05,4.24,3.93,7.3,5.64l9.2,5.19c2.78,1.6,4.77,3.53,5.99,5.79c1.22,2.27,1.79,4.53,1.72,6.8c-0.07,2.26-0.72,4.38-1.93,6.35
		c-1.22,1.97-2.87,3.49-4.97,4.55c-1.95,0.8-4.02,1.25-6.21,1.36h-0.66c-2.19-0.05-4.26-0.49-6.21-1.32
		c-1.95-0.82-3.7-1.98-5.26-3.48c-0.78-0.74-1.49-1.73-2.12-2.95c-0.63-1.23-1.17-2.52-1.61-3.88c-0.44-1.36-0.78-2.72-1.02-4.08
		c-0.24-1.36-0.37-2.6-0.37-3.71h-0.07h-0.51v20.22h0.51v-0.08c0.05-0.16,0.19-0.52,0.44-1.08c0.24-0.56,0.69-1.04,1.35-1.44
		c0.66-0.4,1.59-0.61,2.81-0.64c1.22-0.03,2.82,0.39,4.82,1.24c0.19,0.11,0.44,0.21,0.73,0.32c2.05,0.91,4.16,1.36,6.35,1.36h0.73
		c0.34,0,0.67-0.01,0.98-0.04c0.32-0.03,0.67-0.07,1.06-0.12h-0.15c3.55-0.53,6.6-1.51,9.13-2.92c2.53-1.41,4.56-3.09,6.1-5.04
		c1.53-1.94,2.54-4.06,3.03-6.35c0.49-2.29,0.46-4.58-0.07-6.87C677.81,439.16,676.74,436.97,675.13,434.86z"/>
	<path class="st0" d="M1054.32,402.85c-0.73,0.54-1.83,0.8-3.29,0.8c-1.46,0-3.45-0.67-5.99-2c-0.34-0.21-0.67-0.4-0.99-0.56
		c-0.31-0.16-0.65-0.32-0.98-0.48l-0.07-0.08c-0.1,0-0.19-0.06-0.29-0.16h-0.07c-2.19-1.01-4.58-1.52-7.16-1.52
		c-3.56,0-6.89,0.85-10.01,2.56c-1.56,0.8-3.01,1.79-4.34,2.96c-1.34,1.17-2.59,2.48-3.76,3.92c-2.34,2.88-4.19,6.29-5.55,10.23
		c-0.69,2.03-1.19,4.07-1.54,6.15c-0.34,2.08-0.51,4.21-0.51,6.4h0.29v0.08h-0.29c0,2.18,0.17,4.31,0.51,6.39
		c0.34,2.08,0.85,4.13,1.54,6.16c1.36,3.94,3.21,7.35,5.55,10.23c2.39,2.98,5.09,5.27,8.11,6.87c3.12,1.7,6.45,2.55,10.01,2.55
		c2.58,0,4.94-0.51,7.08-1.52c2.34-1.07,4.43-2.56,6.28-4.48c1.9-2.08,3.48-4.61,4.75-7.59c1.36-3.09,2.31-6.66,2.85-10.71
		l-0.51-0.08c-0.29,1.97-0.66,3.83-1.1,5.59c-0.44,1.76-1,3.41-1.68,4.95c-0.63,1.44-1.33,2.78-2.08,4.04
		c-0.76,1.25-1.62,2.36-2.59,3.31c-1.85,2.03-3.87,3.52-6.06,4.48c-0.97,0.43-1.94,0.75-2.88,0.96c-0.95,0.21-1.94,0.37-2.96,0.48
		c-0.58,0-1.18-0.04-1.79-0.12c-0.61-0.08-1.18-0.23-1.71-0.44c-0.83-0.32-1.8-0.81-2.92-1.48c-1.12-0.67-2.31-1.61-3.58-2.84
		c-2.63-2.82-4.76-6.58-6.39-11.27c-1.63-4.69-2.44-9.86-2.44-15.51c0-4.37,0.5-8.48,1.5-12.35c1-3.86,2.35-7.23,4.05-10.11
		c1.7-2.88,3.7-5.14,5.99-6.79c2.29-1.65,4.72-2.48,7.3-2.48c2.09,0.16,4.04,0.64,5.84,1.44c2.34,1.07,4.38,2.56,6.14,4.47
		c0.92,1.01,1.79,2.15,2.59,3.4c0.81,1.25,1.52,2.6,2.16,4.04c0.63,1.55,1.18,3.19,1.64,4.95c0.46,1.76,0.81,3.62,1.06,5.59h0.51
		v-23.26h-0.51C1055.75,401.34,1055.19,402.27,1054.32,402.85z"/>
	<path class="st0" d="M977.96,462.11c-0.85-0.29-1.53-0.73-2.04-1.32c-0.51-0.59-0.88-1.36-1.1-2.32c-0.22-0.96-0.33-2.18-0.33-3.68
		v-1.44v-44.75v-1.04c0-2.82,0.43-4.77,1.28-5.83c0.85-1.06,2.37-1.73,4.56-2h2.92v-0.08v-0.4h-0.29h-25.12v0.48h2.34
		c2.43,0.16,4.13,0.79,5.07,1.88c0.95,1.09,1.43,3.1,1.43,6.03v0.96v46.11c0,1.7-0.15,3.06-0.44,4.07c-0.29,1.01-0.78,1.81-1.46,2.4
		c-0.68,0.58-1.59,0.97-2.74,1.16c-1.14,0.19-2.54,0.28-4.2,0.28v0.56h25.49v-0.56h-2.27C979.85,462.58,978.81,462.41,977.96,462.11
		z"/>
</g>
</svg>
